<svg width="715" height="256" viewBox="0 0 715 256" fill="none" xmlns="http://www.w3.org/2000/svg">
<path d="M247.963 151.51C243.793 151.51 239.888 151.66 236.018 151.396C235.123 151.336 234.005 150.014 233.519 149.017C226.759 134.98 216.262 124.844 201.457 119.995C180.186 113.031 160.815 117.177 144.91 132.968C129.005 148.758 124.444 168.244 131.577 189.412C138.709 210.575 154.181 222.832 176.323 226.401C178.179 226.702 180.114 226.576 182.013 226.576C308.194 226.588 434.375 226.594 560.555 226.594C564.605 226.594 568.174 223.337 568.21 219.618C568.246 215.754 565.416 213.387 560.658 213.381C548.238 213.363 535.824 213.381 523.404 213.369C519.751 213.369 517.906 211.71 517.942 208.532C517.984 205.353 519.805 203.761 523.476 203.755C532.489 203.743 541.502 203.755 550.515 203.749C554.18 203.749 556.422 201.922 556.752 198.696C557.076 195.553 555.154 192.849 551.897 192.074C550.749 191.804 549.518 191.798 548.322 191.798C536.106 191.78 523.885 191.798 511.669 191.78C507.596 191.774 505.42 188.613 506.905 184.918C507.836 182.593 509.717 182.124 512.018 182.136C527.238 182.184 542.463 182.16 557.683 182.16C561.589 182.16 563.83 180.339 564.07 176.987C564.317 173.61 562.076 170.9 558.494 170.341C557.515 170.191 556.5 170.233 555.496 170.233C543.779 170.227 532.063 170.233 520.346 170.227C516.596 170.227 514.764 168.689 514.716 165.558C514.662 162.356 516.65 160.613 520.424 160.607C527.532 160.595 534.646 160.613 541.754 160.601C546.573 160.589 549.445 158.324 549.494 154.544C549.542 150.771 546.603 148.368 541.887 148.35C536.882 148.332 531.87 148.368 526.865 148.344C523.32 148.326 521.704 146.679 521.74 143.212C521.77 140.13 523.296 138.748 526.799 138.736C534.009 138.712 541.22 138.73 548.43 138.718C549.331 138.718 550.245 138.76 551.128 138.622C554.583 138.093 556.848 135.521 556.776 132.301C556.698 129.128 554.252 126.604 550.791 126.31C549.103 126.166 547.391 126.262 545.684 126.262C533.967 126.262 522.251 126.226 510.534 126.286C507.842 126.298 505.48 126.028 504.441 121.912C503.45 125.433 501.473 125.853 499.123 125.799C495.32 125.709 491.51 125.751 487.707 125.781C485.304 125.799 483.717 124.604 483.645 122.296C483.567 119.809 485.237 118.505 487.719 118.481C491.823 118.439 495.945 118.252 500.031 118.571C501.617 118.691 503.107 120.013 504.765 120.848C505.529 118.481 507.818 117.922 510.666 117.958C519.475 118.06 528.289 117.994 537.104 117.994C538.005 117.994 538.906 117.994 539.808 117.982C544.398 117.904 547.156 115.615 547.162 111.877C547.174 108.116 544.386 105.736 539.856 105.724C531.942 105.7 524.035 105.73 516.122 105.694C514.938 105.694 513.688 105.622 512.595 105.238C510.558 104.523 508.749 102.918 509.38 100.821C509.861 99.2232 511.753 97.9553 513.226 96.8077C513.82 96.345 514.968 96.5373 515.863 96.5313C518.97 96.5013 522.082 96.6875 525.177 96.4832C536.581 95.7382 547.607 97.5107 558.597 100.527C576.809 105.526 595.183 109.955 613.437 114.803C620.161 116.588 625.448 120.482 628.795 126.827C631.361 131.688 636.012 133.845 640.957 135.455C642.729 136.032 644.388 136.627 644.43 139.265C642.423 139.517 640.422 139.769 638.097 140.058C638.866 142.852 639.551 145.327 640.23 147.815C641.804 153.601 643.426 159.381 644.898 165.198C645.319 166.85 646.004 167.745 647.758 168.106C662.449 171.11 677.147 174.084 691.784 177.347C694.908 178.044 697.966 179.576 700.706 181.289C703.464 183.013 704.606 185.951 704.654 189.298C704.756 196.004 705.002 202.709 705.123 209.415C705.171 212.035 706.006 213.579 708.908 214.198C713.168 215.105 716.215 221.973 714.25 225.885C713.829 226.72 712.447 227.519 711.48 227.561C707.286 227.741 703.086 227.639 698.609 227.639C698.267 225.933 697.972 224.298 697.612 222.682C692.39 199.267 673.079 192.038 653.785 196.833C641.714 199.831 633.692 210.082 632.959 223.163C632.833 225.446 632.142 226.083 629.985 226.029C615.276 225.674 600.561 225.398 585.846 225.104C584.86 225.086 583.875 225.104 582.895 225.104C582.895 225.488 582.895 225.867 582.895 226.251H632.461C632.941 231.016 633.368 235.246 633.824 239.765C632.701 239.765 631.517 239.765 630.333 239.765C481.019 239.771 331.711 239.789 182.397 239.789C144.002 239.789 112.301 204.843 115.912 166.556C119.391 129.693 148.941 103.303 185.894 104.048C212.939 104.595 238.59 123.342 247.32 148.944C247.567 149.671 247.711 150.441 247.981 151.51H247.963ZM642.086 168.4C641.714 166.91 641.479 165.853 641.185 164.819C639.034 157.218 636.769 149.647 634.768 142.004C634.107 139.475 632.983 138.447 630.321 138.357C618.418 137.949 606.521 137.444 594.63 136.753C591.482 136.573 590.04 137.576 589.751 140.671C589.553 142.756 588.91 144.798 588.712 146.883C588.207 152.273 587.714 157.681 590.358 162.764C591.422 164.807 592.876 165.805 595.315 165.913C604.917 166.333 614.501 166.982 624.097 167.511C629.967 167.835 635.837 168.094 642.08 168.4H642.086Z" fill="#C51342"/>
<path d="M304.252 155.65C299.968 155.65 295.87 155.764 291.796 155.536C291.117 155.5 290.18 154.052 289.945 153.108C283.198 126.148 268.368 104.853 244.827 90.066C192.924 57.4693 124.997 77.5321 98.7273 132.998C97.4835 135.623 95.9513 137.816 92.8809 138.544C88.1821 139.661 84.5349 136.759 84.9375 131.958C85.0757 130.306 85.6044 128.593 86.3495 127.103C104.832 90.2403 134.214 67.7681 175.169 61.9577C235.015 53.4676 290.414 92.4815 303.573 151.576C303.849 152.826 303.999 154.106 304.252 155.656V155.65Z" fill="#C51342"/>
<path d="M339.547 155.506H326.214C324.766 149.311 323.6 143.122 321.875 137.09C306.541 83.5228 262.45 44.3346 207.381 35.4359C200.688 34.3543 193.856 34.0599 187.072 33.6633C182.265 33.3869 179.357 30.7612 179.369 26.0985C179.381 22.3972 182.476 19.7895 187.066 19.9096C230.821 21.0272 268.026 37.2505 298.274 68.8618C320.409 91.9949 333.76 119.671 339.054 151.24C339.282 152.592 339.366 153.962 339.541 155.512L339.547 155.506Z" fill="#C51342"/>
<path d="M17.0347 181.103C16.2355 178.777 15.6046 176.278 14.5471 173.97C10.6716 165.522 6.56767 157.17 2.76422 148.686C2.13332 147.274 1.92302 144.799 2.73418 143.861C3.56337 142.906 6.00286 142.726 7.52304 143.092C14.6072 144.811 21.6493 146.739 28.6373 148.83C30.2476 149.311 32.3566 150.387 32.9094 151.739C35.6073 158.324 41.2554 159.682 47.294 160.908C64.9233 164.489 82.5225 168.232 100.128 171.928C103.09 172.552 103.775 173.784 102.159 176.344C99.9776 179.799 97.5741 183.14 95.0084 186.324C94.3475 187.147 92.6711 187.646 91.5475 187.52C86.1037 186.895 80.5878 186.42 75.2882 185.122C66.077 182.869 57.0821 179.715 47.8528 177.558C39.4889 175.605 30.9566 175.605 22.6708 178.435C20.6459 179.126 18.7772 180.255 17.0287 181.091L17.0347 181.103Z" fill="#C51342"/>
<path d="M161.95 162.578C168.332 161.262 174.1 161.869 179.489 164.735C187.583 169.043 192.18 175.659 193.261 184.948C194.697 197.23 187.92 206.669 178.51 211.362C170.759 215.225 156.837 213.819 150.131 206.825C144.748 201.213 141.918 195.109 142.05 187.285C142.284 173.484 142.17 159.67 142.068 145.862C142.05 143.326 142.639 142.101 145.397 142.413C147.073 142.605 148.798 142.533 150.492 142.425C153.208 142.251 154.187 143.429 154.169 146.132C154.085 159.838 154.428 173.556 154.013 187.249C153.791 194.664 160.658 200.865 165.249 201.291C174.16 202.109 179.79 197.927 181.178 189.689C182.518 181.745 176.611 175.208 170.146 174.337C168.265 174.085 166.325 174.223 164.414 174.313C162.629 174.397 161.86 173.748 161.92 171.897C162.016 168.815 161.944 165.727 161.944 162.578H161.95Z" fill="#C51342"/>
<path d="M167.418 16.4545C166.21 19.9996 165.153 23.106 164.095 26.2245C163.837 26.9816 163.464 27.7266 163.368 28.5078C162.846 32.8219 162.653 33.0863 158.129 32.9962C147.728 32.7919 137.321 32.5095 126.92 32.2631C126.133 32.2451 125.34 32.2631 124.09 32.2631C126.578 41.0297 128.999 49.592 131.499 58.3946C127.449 58.4967 124.306 58.2744 121.584 54.9216C115.918 47.9336 109.783 41.3301 103.697 34.6966C102.651 33.555 100.999 32.6176 99.4787 32.3172C89.4744 30.3284 79.4039 28.6339 69.4116 26.597C67.7893 26.2665 66.4193 24.7343 64.9292 23.7549C65.8726 22.3249 66.5155 20.4923 67.8073 19.5369C71.8451 16.5686 76.3756 14.7721 81.555 15.4811C95.9276 17.4339 110.3 19.3987 124.667 21.3815C130.02 22.1206 135.356 22.9678 140.71 23.6648C148.623 24.6983 155.677 22.7575 161.253 16.9111C163.32 14.742 165.045 16.2983 167.406 16.4665L167.418 16.4545Z" fill="#C51342"/>
<path d="M692.721 228.781C692.757 243.863 680.559 256.024 665.424 256C650.492 255.976 638.391 243.838 638.361 228.847C638.331 213.729 650.522 201.412 665.508 201.424C680.571 201.436 692.685 213.615 692.721 228.781ZM681.19 228.799C681.262 220.213 674.304 213.128 665.67 213.002C657.168 212.876 649.927 219.996 649.861 228.535C649.795 237.313 656.879 244.511 665.556 244.481C674.154 244.457 681.118 237.469 681.196 228.799H681.19Z" fill="#C51342"/>
<path d="M403.496 161.52C409.048 162.332 414.396 162.932 418.896 166.405C425.644 171.609 430.144 177.876 429.964 186.853C429.808 194.658 429.856 202.475 429.976 210.28C430.012 212.636 429.321 213.603 426.906 213.375C425.121 213.207 423.3 213.249 421.504 213.363C418.728 213.543 417.845 212.257 417.881 209.607C417.983 202.097 417.694 194.58 417.995 187.081C418.211 181.655 413.146 175.569 407.624 174.331C406.386 174.054 405.112 173.958 403.496 173.724C403.496 174.866 403.496 175.929 403.496 176.993C403.496 188.006 403.412 199.02 403.55 210.034C403.586 212.744 402.679 213.633 400.095 213.369C398.509 213.207 396.886 213.231 395.294 213.363C392.446 213.591 391.419 212.401 391.431 209.541C391.509 190.818 391.473 172.09 391.473 153.367C391.473 150.861 391.545 148.356 391.455 145.856C391.365 143.465 392.32 142.323 394.783 142.425C396.88 142.509 398.989 142.515 401.093 142.425C402.949 142.347 403.538 143.17 403.514 144.943C403.448 150.344 403.49 155.746 403.49 161.514L403.496 161.52Z" fill="#C51342"/>
<path d="M307.96 198.089C307.96 202.193 307.863 206.303 307.996 210.401C308.068 212.57 307.425 213.381 305.13 213.399C295.942 213.477 295.942 213.549 295.942 204.446C295.942 198.738 296.027 193.036 295.918 187.327C295.768 179.504 289.008 173.772 282.105 173.874C274.594 173.988 268.393 179.63 268.393 187.97C268.393 195.499 275.105 201.724 282.057 201.394C288.113 201.105 288.155 201.34 288.119 207.444C288.077 214.18 288.984 213.08 282.231 213.387C267.299 214.06 254.982 200.955 256.322 185.423C257.361 173.4 267.269 163.305 279.124 162.133C292.98 160.763 304.066 169.362 306.854 180.321C308.296 186 307.936 192.134 308.386 198.059C308.242 198.071 308.098 198.077 307.954 198.089H307.96Z" fill="#C51342"/>
<path d="M250.277 198.323C250.277 202.229 250.223 206.134 250.295 210.04C250.337 212.263 249.484 213.303 247.164 213.381C238.259 213.687 238.259 213.729 238.259 204.759C238.259 199.152 238.506 193.528 238.199 187.94C237.749 179.739 232.431 174.667 224.632 173.76C220.234 173.249 214.033 177.467 211.852 181.986C209.544 186.757 210.494 192.531 213.913 196.575C217.422 200.727 221.904 201.85 226.999 201.298C229.511 201.027 230.484 201.868 230.484 204.44C230.484 213.441 230.538 213.687 221.55 213.285C210.77 212.804 201.739 204.722 199.312 194.34C196.938 184.191 199.48 175.196 207.507 168.082C211.473 164.573 216.052 162.854 221.321 162.193C230.136 161.082 237.34 163.966 243.361 170.131C247.867 174.751 249.97 180.52 250.247 186.907C250.409 190.704 250.277 194.514 250.277 198.323Z" fill="#C51342"/>
<path d="M472.595 173.76C472.595 182.935 472.595 191.936 472.595 200.937C472.595 204.242 472.535 207.546 472.619 210.851C472.661 212.612 472.091 213.447 470.21 213.375C467.71 213.279 465.187 213.519 462.711 213.249C461.936 213.164 460.674 211.921 460.674 211.194C460.554 195.571 460.542 179.949 460.692 164.333C460.698 163.443 462.278 161.827 463.156 161.803C470.06 161.629 477.054 161.13 483.621 164.08C491.625 167.679 497.225 173.754 498.228 182.37C499.322 191.738 498.901 201.285 498.913 210.755C498.913 211.62 497.363 213.134 496.401 213.249C487.028 214.366 487.022 214.3 487.022 204.939C487.022 200.132 486.794 195.313 487.07 190.524C487.563 181.992 482.696 174.625 472.595 173.76Z" fill="#C51342"/>
<path d="M378.224 177.005C375.202 176.007 372.606 174.8 369.884 174.325C362.59 173.051 356.13 178.146 354.923 184.756C353.468 192.699 357.879 198.888 364.897 200.919C368.736 202.031 372.432 201.418 375.628 199.249C377.347 198.083 378.17 198.383 379.354 199.681C380.832 201.31 382.484 202.782 383.998 204.38C385.428 205.888 385.404 207.516 383.722 208.736C374.853 215.159 359.693 214.955 350.891 207.03C341.361 198.455 340.448 181.878 347.039 172.997C351.648 166.79 357.524 163.017 365.45 162.181C372.041 161.491 377.833 162.999 383.241 166.532C385.392 167.938 385.554 169.596 383.782 171.441C381.907 173.388 379.966 175.262 378.224 177.005Z" fill="#C51342"/>
<path d="M314.443 199.387C315.272 192.645 315.428 185.729 317.092 179.204C319.472 169.903 326.628 164.891 335.557 162.374C339.348 161.304 340.4 162.29 340.4 166.207C340.4 166.61 340.37 167.013 340.4 167.409C340.76 171.297 340.526 174.055 335.539 175.533C329.41 177.353 327.415 183.17 327.229 189.208C327.019 196.01 327.013 202.83 327.253 209.626C327.367 212.78 326.279 213.741 323.317 213.387C321.641 213.183 319.916 213.315 318.216 213.357C316.083 213.411 315.127 212.414 315.152 210.287C315.194 206.681 315.164 203.076 315.164 199.477C314.923 199.447 314.677 199.417 314.437 199.387H314.443Z" fill="#C51342"/>
<path d="M438.947 187.652C438.947 180.249 439.031 172.841 438.905 165.444C438.857 162.554 439.981 161.593 442.799 161.635C451.878 161.773 450.965 160.691 450.965 169.83C450.965 183.037 450.965 196.244 450.965 209.451C450.965 213.008 450.598 213.345 446.951 213.351C441.619 213.363 438.953 210.701 438.953 205.365C438.953 199.465 438.953 193.558 438.953 187.658L438.947 187.652Z" fill="#C51342"/>
<path d="M10.3768 188.349C17.3709 181.992 25.8009 179.661 34.8139 181.361C44.1092 183.116 53.1702 186.126 62.3633 188.463C68.1677 189.941 73.978 191.498 79.8724 192.483C87.5274 193.763 94.5815 191.936 100.674 186.937C100.903 186.751 101.173 186.619 101.437 186.48C101.485 186.456 101.588 186.54 101.96 186.709C96.0777 194.111 88.9574 199.038 79.2956 199.465C71.5325 199.807 64.2921 197.41 57.0758 194.965C51.3916 193.042 45.7375 191.023 39.9993 189.28C30.2533 186.318 20.3932 185.507 10.3768 188.349Z" fill="#C51342"/>
<path d="M63.1685 199.579C57.7848 203.046 52.2629 204.386 46.5367 203.755C39.801 203.016 33.1195 201.712 26.4619 200.378C17.6593 198.612 8.91077 197.17 0 201.033C2.00688 197.716 6.26698 194.682 11.2902 192.879C18.4284 190.32 25.7709 190.146 33.2096 191.071C43.4963 192.345 53.2303 195.457 63.1685 199.579Z" fill="#C51342"/>
<path d="M100.891 14.1113C107.398 11.0048 113.965 7.90437 120.485 4.71981C121.728 4.11294 123.032 3.34984 123.903 2.31035C126.589 -0.892238 129.504 -0.417557 133.007 1.62537C130.555 6.54042 128.11 11.5095 125.562 16.4306C125.34 16.8572 124.378 17.1757 123.813 17.1036C116.098 16.1422 108.389 15.1027 100.891 14.1113Z" fill="#C51342"/>
<path d="M495.602 96.1109C498.402 96.1109 501.196 96.0448 503.996 96.1289C506.826 96.213 508.653 97.9795 508.725 100.503C508.797 103.123 506.899 105.124 503.954 105.172C498.462 105.268 492.965 105.274 487.473 105.172C484.516 105.118 482.684 103.129 482.768 100.455C482.852 97.8954 484.625 96.213 487.515 96.1289C490.213 96.0508 492.91 96.1109 495.608 96.1109H495.602Z" fill="#C51342"/>
<path d="M33.612 133.472C42.5888 136.615 51.3193 139.667 60.2662 142.798C59.8396 144.582 59.473 146.097 59.0224 147.989C52.3168 145.808 45.8094 143.699 39.3021 141.578C38.8274 141.422 38.3588 141.254 37.8841 141.091C34.5794 139.978 33.1553 137.438 33.612 133.472Z" fill="#C51342"/>
<path d="M33.1256 140.953C41.9282 143.861 50.2321 146.601 58.7223 149.407C58.2476 151.264 57.8571 152.772 57.4064 154.538C49.0905 152.111 40.9849 149.744 32.7711 147.34C32.8913 145.195 32.9994 143.332 33.1316 140.953H33.1256Z" fill="#C51342"/>
<path d="M438.34 148.055C438.358 144.192 441.297 140.983 444.992 141.398C449.012 141.848 451.571 144.096 451.535 148.242C451.499 152.051 449.15 154.677 444.541 154.791C440.798 154.881 438.322 152.003 438.34 148.061V148.055Z" fill="#C51342"/>
<path d="M33.1073 148.932C40.564 151.078 48.0327 153.181 55.4473 155.452C56.0782 155.644 56.6671 156.972 56.7211 157.801C56.7872 158.829 56.2645 159.892 55.8559 161.49C50.1778 160.133 44.3254 159.43 39.1279 157.2C36.364 156.017 34.7356 152.177 32.5966 149.539C32.7708 149.341 32.939 149.137 33.1133 148.938L33.1073 148.932Z" fill="#C51342"/>
<path d="M59.7557 149.744C66.0467 151.817 71.9051 153.745 77.9978 155.752C77.6734 157.254 77.385 158.57 77.0304 160.181C70.8896 158.414 64.9712 156.708 58.6862 154.899C59.0286 153.235 59.3411 151.727 59.7497 149.744H59.7557Z" fill="#C51342"/>
<path d="M57.0575 161.647C57.5202 159.73 57.8987 158.144 58.3554 156.251C64.5743 158.054 70.4988 159.766 76.7297 161.575C76.4233 162.879 76.1589 163.99 75.7984 165.498C69.5614 164.218 63.4747 162.969 57.0575 161.647Z" fill="#C51342"/>
<path d="M93.4158 164.957C87.7677 163.317 83.141 161.971 78.244 160.547C78.5444 159.081 78.8148 157.771 79.1573 156.113C83.5196 157.567 87.7016 158.769 91.6853 160.451C92.5445 160.812 92.6767 162.903 93.4158 164.951V164.957Z" fill="#C51342"/>
<path d="M76.9406 165.739C77.3311 164.309 77.6075 163.287 77.974 161.947C82.6487 163.305 87.1372 164.507 91.5295 165.985C92.1904 166.207 92.4007 167.745 93.2119 169.536C87.2393 168.142 82.2942 166.988 76.9406 165.739Z" fill="#C51342"/>
<path d="M26.9606 140.659C28.8413 140.785 30.3014 140.887 31.8275 140.989V147.148H26.9606V140.653V140.659Z" fill="#C51342"/>
<path d="M20.8501 133.064H25.8433V138.88H20.8501V133.064Z" fill="#C51342"/>
<path d="M19.3477 138.85C17.425 138.766 15.9589 138.7 14.3125 138.622V132.805H19.3477V138.85Z" fill="#C51342"/>
<path d="M12.9665 138.285H8.11755V132.559H13.2609C13.1528 134.626 13.0626 136.441 12.9665 138.285Z" fill="#C51342"/>
<path d="M32.0918 139.21C31.2626 139.271 30.6918 139.361 30.1149 139.349C29.2377 139.331 28.3604 139.247 27.2909 139.174V133.4H32.0918V139.21Z" fill="#C51342"/>
<path d="M20.8379 140.659H25.4345V146.337C20.0207 145.844 19.6422 145.387 20.8379 140.659Z" fill="#C51342"/>
<path d="M19.3294 140.412C19.2093 142.113 19.1191 143.362 19.029 144.63C15.3517 144.162 13.7815 142.665 14.3183 140.142C15.8264 140.226 17.3766 140.31 19.3354 140.412H19.3294Z" fill="#C51342"/>
<path d="M12.7444 143.597C10.5332 142.57 8.96495 141.842 7.40271 141.109C7.52889 140.791 7.65507 140.467 7.78125 140.148H12.7444V143.597Z" fill="#C51342"/>
</svg>
