<svg width="126" height="126" viewBox="0 0 126 126" fill="none" xmlns="http://www.w3.org/2000/svg">
<g id="Group">
<path id="Vector" d="M125.98 62.9951C125.98 80.6582 118.688 96.624 106.975 108.061C106.817 108.228 106.65 108.396 106.482 108.554H106.472C97.6206 116.991 86.3518 122.882 73.7804 125.043C72.6555 125.24 71.5207 125.418 70.3958 125.536C67.9585 125.832 65.4916 125.98 62.9852 125.98C46.1214 125.98 30.8068 119.349 19.5083 108.554H19.4985C19.3307 108.396 19.163 108.228 19.0051 108.07C7.28232 96.624 0 80.6483 0 62.9951C0 28.1919 28.2116 0 62.9951 0C97.7785 0 126 28.1919 126 62.9951H125.98Z" fill="#F2F2F2"/>
<g id="Group_2">
<path id="Vector_2" d="M85.7992 53.69C86.9142 49.0028 89.3417 43.023 89.3417 43.023C89.3417 43.023 89.0654 40.1713 86.8945 35.1487C84.7236 30.126 78.6155 25.508 78.6155 25.508L84.1809 22.7944C79.4247 22.1135 69.784 23.643 69.784 23.643L74.9744 19.8735C74.9744 19.8735 59.6006 19.9722 49.5454 24.5607C41.5329 28.2117 35.4248 39.9049 36.6484 42.6185C37.4773 44.4538 38.6121 50.5915 39.2634 54.361C37.7141 55.8806 37.6549 58.3574 39.0167 60.9131C40.5856 63.8635 39.1449 67.8402 43.7926 68.3928C43.8617 69.498 43.9406 70.4847 44.0196 71.2643C44.6708 77.5105 54.0451 84.4376 55.3476 86.4703C56.6502 88.503 60.686 88.0985 60.686 88.0985H65.2646C65.2646 88.0985 69.2906 88.503 70.603 86.4703C71.9055 84.4376 81.2798 77.5105 81.9311 71.2643C82.01 70.4749 82.089 69.498 82.158 68.3928C86.8057 67.8402 85.365 63.8635 86.934 60.9131C88.5227 57.9429 88.1674 55.0616 85.7992 53.69Z" fill="#696C82"/>
<g id="Group_3">
<path id="Vector_3" d="M62.9753 103.068C69.7642 103.068 75.9118 99.8212 80.2832 94.6209C79.4444 94.0584 78.9609 93.7032 78.9609 93.7032C77.6288 91.1475 76.7505 86.4012 76.2078 82.4541C75.3197 83.3619 74.4514 84.2007 73.6718 84.9506C72.5568 86.0262 71.5898 86.9537 71.2839 87.4274C70.1491 89.2036 67.544 89.4601 66.0935 89.4601C65.6593 89.4601 65.3435 89.4404 65.2251 89.4305H60.7255C60.6071 89.4305 60.2913 89.4601 59.8571 89.4601C58.4066 89.4601 55.8015 89.1937 54.6667 87.4274C54.3608 86.9537 53.3938 86.0262 52.2788 84.9506C51.4992 84.2007 50.6309 83.3619 49.7428 82.4541C49.2001 86.411 48.312 91.1574 46.9897 93.7032C46.9897 93.7032 46.5062 94.0584 45.6674 94.6209C50.0388 99.8212 56.1864 103.068 62.9753 103.068Z" fill="#696C82"/>
<path id="Vector_4" d="M106.975 108.061C106.817 108.228 106.649 108.396 106.482 108.554H106.472C97.6206 116.991 86.3517 122.882 73.7803 125.043C72.6554 125.24 71.5207 125.418 70.3958 125.536C67.9584 125.832 65.4915 125.98 62.9852 125.98C46.1213 125.98 30.8067 119.349 19.5083 108.554H19.4984C19.3307 108.396 19.1629 108.228 19.005 108.07C21.1364 105.11 24.9158 104.489 32.0303 101.953C36.7767 100.265 41.8092 97.1766 44.6609 95.3018C49.2691 100.838 55.7719 104.291 62.9852 104.291C70.1984 104.291 76.711 100.828 81.3094 95.3018C84.171 97.1865 89.2134 100.265 93.94 101.953C101.074 104.489 104.844 105.11 106.975 108.061Z" fill="#696C82"/>
</g>
</g>
</g>
</svg>
